<svg width="60" height="60" viewBox="0 0 60 60" fill="none" xmlns="http://www.w3.org/2000/svg">
<circle cx="13" cy="14" r="10" fill="#FFED4D"/>
<path d="M16.9471 15.3499C18.1014 13.7554 19.8362 12.6787 21.7773 12.352C23.7184 12.0253 25.7101 12.4747 27.3227 13.6034C28.9354 14.7321 30.0397 16.4495 30.3973 18.3851C30.755 20.3208 30.3374 22.3194 29.2346 23.9499L14.8946 44.4299C13.7468 46.0417 12.0086 47.1347 10.0586 47.4707C8.10856 47.8066 6.10478 47.3584 4.4838 46.2235C2.86282 45.0887 1.756 43.3592 1.40448 41.4119C1.05296 39.4646 1.48523 37.4573 2.6071 35.8274L16.9471 15.3474V15.3499Z" fill="#EE4E39"/>
<path d="M38.1698 15.5698C39.3108 13.9404 41.0525 12.831 43.0115 12.4857C44.9706 12.1404 46.9866 12.5875 48.616 13.7286C50.2454 14.8697 51.3548 16.6113 51.7001 18.5704C52.0454 20.5294 51.5983 22.5454 50.4573 24.1748L36.1173 44.6523C34.9695 46.2642 33.2313 47.3572 31.2812 47.6932C29.3312 48.0291 27.3274 47.5808 25.7065 46.446C24.0855 45.3111 22.9787 43.5817 22.6271 41.6344C22.2756 39.6871 22.7079 37.6798 23.8298 36.0498L38.1698 15.5698V15.5698Z" fill="#EE4E39"/>
<path d="M51.25 47.1499C53.2391 47.1499 55.1468 46.3597 56.5533 44.9532C57.9598 43.5467 58.75 41.639 58.75 39.6499C58.75 37.6608 57.9598 35.7531 56.5533 34.3466C55.1468 32.9401 53.2391 32.1499 51.25 32.1499C49.2609 32.1499 47.3532 32.9401 45.9467 34.3466C44.5402 35.7531 43.75 37.6608 43.75 39.6499C43.75 41.639 44.5402 43.5467 45.9467 44.9532C47.3532 46.3597 49.2609 47.1499 51.25 47.1499Z" fill="#EE4E39"/>
</svg>
