<svg width="62" height="58" viewBox="0 0 62 58" fill="none" xmlns="http://www.w3.org/2000/svg">
<circle cx="10" cy="10" r="10" fill="#FFED4D"/>
<path d="M35.2874 20.6666C34.6686 20.6666 34.0751 20.9125 33.6375 21.35C33.1999 21.7876 32.9541 22.3811 32.9541 23C32.9541 23.6188 33.1999 24.2123 33.6375 24.6499C34.0751 25.0875 34.6686 25.3333 35.2874 25.3333H44.6208C45.2396 25.3333 45.8331 25.0875 46.2707 24.6499C46.7083 24.2123 46.9541 23.6188 46.9541 23C46.9541 22.3811 46.7083 21.7876 46.2707 21.35C45.8331 20.9125 45.2396 20.6666 44.6208 20.6666H35.2874Z" fill="#EE4E39" fill-opacity="0.26"/>
<path d="M35.2874 41.6666C34.6686 41.6666 34.0751 41.9125 33.6375 42.35C33.1999 42.7876 32.9541 43.3811 32.9541 44C32.9541 44.6188 33.1999 45.2123 33.6375 45.6499C34.0751 46.0875 34.6686 46.3333 35.2874 46.3333H44.6208C45.2396 46.3333 45.8331 46.0875 46.2707 45.6499C46.7083 45.2123 46.9541 44.6188 46.9541 44C46.9541 43.3811 46.7083 42.7876 46.2707 42.35C45.8331 41.9125 45.2396 41.6666 44.6208 41.6666H35.2874Z" fill="#EE4E39" fill-opacity="0.26"/>
<path d="M35.2874 13.6666C34.6686 13.6666 34.0751 13.9125 33.6375 14.35C33.1999 14.7876 32.9541 15.3811 32.9541 16C32.9541 16.6188 33.1999 17.2123 33.6375 17.6499C34.0751 18.0875 34.6686 18.3333 35.2874 18.3333H53.9541C54.5729 18.3333 55.1664 18.0875 55.604 17.6499C56.0416 17.2123 56.2874 16.6188 56.2874 16C56.2874 15.3811 56.0416 14.7876 55.604 14.35C55.1664 13.9125 54.5729 13.6666 53.9541 13.6666H35.2874Z" fill="#EE4E39" fill-opacity="0.66"/>
<path d="M35.2874 34.6666C34.6686 34.6666 34.0751 34.9125 33.6375 35.35C33.1999 35.7876 32.9541 36.3811 32.9541 37C32.9541 37.6188 33.1999 38.2123 33.6375 38.6499C34.0751 39.0875 34.6686 39.3333 35.2874 39.3333H53.9541C54.5729 39.3333 55.1664 39.0875 55.604 38.6499C56.0416 38.2123 56.2874 37.6188 56.2874 37C56.2874 36.3811 56.0416 35.7876 55.604 35.35C55.1664 34.9125 54.5729 34.6666 53.9541 34.6666H35.2874Z" fill="#EE4E39" fill-opacity="0.66"/>
<path d="M14.0452 11.3379C13.4264 11.3379 12.8329 11.5837 12.3953 12.0213C11.9577 12.4589 11.7119 13.0524 11.7119 13.6712V25.3379C11.7119 25.9567 11.9577 26.5502 12.3953 26.9878C12.8329 27.4254 13.4264 27.6712 14.0452 27.6712H25.7119C26.3308 27.6712 26.9242 27.4254 27.3618 26.9878C27.7994 26.5502 28.0453 25.9567 28.0453 25.3379V13.6712C28.0453 13.0524 27.7994 12.4589 27.3618 12.0213C26.9242 11.5837 26.3308 11.3379 25.7119 11.3379H14.0452V11.3379Z" fill="#EE4E39"/>
<path d="M14.0452 32.3285C13.4264 32.3285 12.8329 32.5743 12.3953 33.0119C11.9577 33.4495 11.7119 34.043 11.7119 34.6618V46.3285C11.7119 46.9473 11.9577 47.5408 12.3953 47.9784C12.8329 48.416 13.4264 48.6618 14.0452 48.6618H25.7119C26.3308 48.6618 26.9242 48.416 27.3618 47.9784C27.7994 47.5408 28.0453 46.9473 28.0453 46.3285V34.6618C28.0453 34.043 27.7994 33.4495 27.3618 33.0119C26.9242 32.5743 26.3308 32.3285 25.7119 32.3285H14.0452V32.3285Z" fill="#EE4E39"/>
</svg>
