<svg width="65" height="61" viewBox="0 0 65 61" fill="none" xmlns="http://www.w3.org/2000/svg">
<circle cx="10" cy="13" r="10" fill="#FFED4D"/>
<path d="M44.3594 12.4009H13.8594V17.4842H44.3594V12.4009Z" fill="#EE4E39"/>
<path d="M44.3594 22.5675H13.8594V27.6508H44.3594V22.5675Z" fill="#EE4E39"/>
<path d="M13.8594 32.7343H34.1927V37.8176H13.8594V32.7343V32.7343Z" fill="#EE4E39"/>
<path fill-rule="evenodd" clip-rule="evenodd" d="M38.9655 32.4241C37.6898 33.6954 36.9052 35.3771 36.7508 37.1714C36.5963 38.9658 37.082 40.7568 38.1217 42.2274C39.1614 43.6979 40.6881 44.7529 42.4312 45.2056C44.1744 45.6582 46.0215 45.4793 47.6453 44.7004L51.5468 48.5993L55.1407 45.0054L51.2392 41.1039C52.0125 39.4808 52.1875 37.6366 51.7334 35.8969C51.2793 34.1573 50.2252 32.634 48.7572 31.5958C47.2893 30.5577 45.5018 30.0715 43.7102 30.2231C41.9187 30.3746 40.2382 31.1542 38.9655 32.4241V32.4241ZM42.562 39.6145C42.7981 39.8505 43.0784 40.0377 43.3869 40.1653C43.6954 40.293 44.026 40.3586 44.3598 40.3585C44.6937 40.3584 45.0242 40.2925 45.3326 40.1646C45.641 40.0368 45.9212 39.8494 46.1572 39.6133C46.3931 39.3771 46.5803 39.0968 46.7079 38.7883C46.8356 38.4798 46.9012 38.1492 46.9011 37.8154C46.901 37.4815 46.8351 37.151 46.7073 36.8426C46.5794 36.5342 46.392 36.254 46.1559 36.0181C45.679 35.5415 45.0323 35.2739 44.358 35.2741C43.6838 35.2744 43.0373 35.5424 42.5607 36.0193C42.0841 36.4963 41.8165 37.143 41.8167 37.8172C41.817 38.4914 42.0851 39.1379 42.562 39.6145V39.6145Z" fill="#EE4E39"/>
</svg>
