<svg width="59" height="55" viewBox="0 0 59 55" fill="none" xmlns="http://www.w3.org/2000/svg">
<circle cx="10" cy="10" r="10" fill="#FFED4D"/>
<path fill-rule="evenodd" clip-rule="evenodd" d="M33.9997 19.5834C31.237 19.5834 28.5875 20.6808 26.634 22.6343C24.6805 24.5878 23.583 27.2374 23.583 30C23.583 32.7627 24.6805 35.4122 26.634 37.3657C28.5875 39.3192 31.237 40.4167 33.9997 40.4167C36.7623 40.4167 39.4119 39.3192 41.3654 37.3657C43.3189 35.4122 44.4163 32.7627 44.4163 30C44.4163 27.2374 43.3189 24.5878 41.3654 22.6343C39.4119 20.6808 36.7623 19.5834 33.9997 19.5834V19.5834ZM27.7497 30C27.7497 31.6576 28.4082 33.2474 29.5803 34.4195C30.7524 35.5916 32.3421 36.25 33.9997 36.25C35.6573 36.25 37.247 35.5916 38.4191 34.4195C39.5912 33.2474 40.2497 31.6576 40.2497 30C40.2497 28.3424 39.5912 26.7527 38.4191 25.5806C37.247 24.4085 35.6573 23.75 33.9997 23.75C32.3421 23.75 30.7524 24.4085 29.5803 25.5806C28.4082 26.7527 27.7497 28.3424 27.7497 30Z" fill="#EE4E39"/>
<path d="M46.4994 15.4167C45.9468 15.4167 45.4169 15.6362 45.0262 16.0269C44.6355 16.4176 44.416 16.9475 44.416 17.5001C44.416 18.0526 44.6355 18.5825 45.0262 18.9732C45.4169 19.3639 45.9468 19.5834 46.4994 19.5834C47.0519 19.5834 47.5818 19.3639 47.9725 18.9732C48.3632 18.5825 48.5827 18.0526 48.5827 17.5001C48.5827 16.9475 48.3632 16.4176 47.9725 16.0269C47.5818 15.6362 47.0519 15.4167 46.4994 15.4167Z" fill="#EE4E39"/>
<path fill-rule="evenodd" clip-rule="evenodd" d="M19.4163 7.08337C17.2062 7.08337 15.0866 7.96135 13.5238 9.52415C11.961 11.087 11.083 13.2066 11.083 15.4167V44.5834C11.083 46.7935 11.961 48.9131 13.5238 50.4759C15.0866 52.0387 17.2062 52.9167 19.4163 52.9167H48.583C50.7931 52.9167 52.9128 52.0387 54.4756 50.4759C56.0384 48.9131 56.9163 46.7935 56.9163 44.5834V15.4167C56.9163 13.2066 56.0384 11.087 54.4756 9.52415C52.9128 7.96135 50.7931 7.08337 48.583 7.08337H19.4163ZM48.583 11.25H19.4163C18.3113 11.25 17.2515 11.689 16.4701 12.4704C15.6887 13.2518 15.2497 14.3116 15.2497 15.4167V44.5834C15.2497 45.6884 15.6887 46.7482 16.4701 47.5296C17.2515 48.3111 18.3113 48.75 19.4163 48.75H48.583C49.6881 48.75 50.7479 48.3111 51.5293 47.5296C52.3107 46.7482 52.7497 45.6884 52.7497 44.5834V15.4167C52.7497 14.3116 52.3107 13.2518 51.5293 12.4704C50.7479 11.689 49.6881 11.25 48.583 11.25Z" fill="#EE4E39"/>
</svg>
