<svg width="42" height="48" viewBox="0 0 42 48" fill="none" xmlns="http://www.w3.org/2000/svg">
<circle cx="15" cy="10" r="10" fill="#FFED4D"/>
<path fill-rule="evenodd" clip-rule="evenodd" d="M38.5282 6.58609C38.3424 6.40013 38.1218 6.25261 37.879 6.15197C37.6362 6.05132 37.376 5.99951 37.1132 5.99951C36.8503 5.99951 36.5901 6.05132 36.3473 6.15197C36.1045 6.25261 35.8839 6.40013 35.6982 6.58609L33.9542 8.33008C32.834 7.7956 31.5758 7.62149 30.3526 7.83174C29.1294 8.04199 28.0015 8.62625 27.1242 9.50408L5.91016 30.7161L17.2242 42.0301L38.4402 20.8161C40.2882 18.9701 40.6782 16.2161 39.6122 13.9881L41.3582 12.2421C41.7331 11.867 41.9437 11.3584 41.9437 10.8281C41.9437 10.2978 41.7331 9.78914 41.3582 9.41408L38.5282 6.58609ZM29.9922 23.6061L17.2242 36.3741L11.5682 30.7161L24.3342 17.9501L29.9922 23.6081V23.6061ZM33.6282 19.9701L35.6082 17.9901C35.7941 17.8043 35.9416 17.5838 36.0423 17.341C36.1429 17.0982 36.1947 16.8379 36.1947 16.5751C36.1947 16.3123 36.1429 16.052 36.0423 15.8092C35.9416 15.5664 35.7941 15.3458 35.6082 15.1601L32.7822 12.3321C32.5964 12.1461 32.3758 11.9986 32.133 11.898C31.8902 11.7973 31.63 11.7455 31.3672 11.7455C31.1043 11.7455 30.8441 11.7973 30.6013 11.898C30.3585 11.9986 30.1379 12.1461 29.9522 12.3321L27.9722 14.3121L33.6282 19.9721V19.9701Z" fill="#EE4E39"/>
<path d="M0 47.9L4.244 32.344L15.556 43.658L0 47.9Z" fill="#EE4E39"/>
</svg>
