<svg width="12" height="12" viewBox="0 0 12 12" fill="none" xmlns="http://www.w3.org/2000/svg">
<path d="M5.63649 1.8435C5.59138 1.79577 5.55611 1.73961 5.5327 1.67825C5.5093 1.61689 5.4982 1.55151 5.50006 1.48586C5.50192 1.42021 5.51669 1.35557 5.54353 1.29562C5.57037 1.23568 5.60875 1.18161 5.65649 1.1365C5.70422 1.09139 5.76037 1.05613 5.82174 1.03272C5.8831 1.00931 5.94848 0.998221 6.01413 1.00008C6.07978 1.00194 6.14442 1.01671 6.20436 1.04354C6.26431 1.07038 6.31838 1.10877 6.36349 1.1565L10.6135 5.6565C10.7013 5.74934 10.7502 5.87225 10.7502 6C10.7502 6.12776 10.7013 6.25067 10.6135 6.3435L6.36349 10.844C6.31867 10.8928 6.26462 10.9322 6.20445 10.9599C6.14429 10.9876 6.07922 11.0031 6.01302 11.0054C5.94683 11.0078 5.88082 10.997 5.81884 10.9736C5.75686 10.9502 5.70015 10.9148 5.65199 10.8693C5.60383 10.8238 5.56518 10.7692 5.5383 10.7087C5.51142 10.6481 5.49683 10.5829 5.49539 10.5166C5.49395 10.4504 5.50568 10.3846 5.5299 10.3229C5.55412 10.2613 5.59035 10.205 5.63649 10.1575L9.56249 6L5.63649 1.8435Z" fill="#EE4E39"/>
</svg>
