<svg width="25" height="26" viewBox="0 0 25 26" fill="none" xmlns="http://www.w3.org/2000/svg">
<path d="M10.9977 6.19995C14.4616 6.19995 17.3161 8.76845 17.5801 12.0905L17.5955 12.3358L17.5999 12.5822L17.5988 16.5378L18.6163 18.9819C18.6416 19.0413 18.6603 19.1029 18.6746 19.1656L18.6922 19.2603L18.701 19.4055C18.6998 19.6482 18.6184 19.8837 18.4693 20.0753C18.3203 20.2669 18.1121 20.4038 17.8771 20.4648L17.7495 20.4944L17.601 20.5055L13.7499 20.5043L13.7444 20.6814C13.7002 21.3793 13.3918 22.0341 12.882 22.5127C12.3722 22.9912 11.6992 23.2576 10.9999 23.2576C10.3007 23.2576 9.62768 22.9912 9.11784 22.5127C8.60801 22.0341 8.29963 21.3793 8.25542 20.6814L8.24992 20.5043H4.39882C4.30226 20.5045 4.2061 20.4919 4.11282 20.467L3.97642 20.4208C3.75437 20.3271 3.56921 20.1632 3.44937 19.9542C3.32954 19.7451 3.28167 19.5025 3.31312 19.2636L3.33622 19.1228L3.38352 18.9819L4.39882 16.5411L4.39992 12.5723L4.40432 12.3248C4.53962 8.89605 7.44802 6.19995 10.9977 6.19995ZM12.6499 20.5043H9.34992L9.35762 20.6595C9.39464 21.0403 9.56289 21.3965 9.8336 21.667C10.1043 21.9375 10.4606 22.1055 10.8415 22.1422L10.9999 22.1499C11.4099 22.15 11.8052 21.9973 12.1088 21.7218C12.4124 21.4462 12.6026 21.0675 12.6422 20.6595L12.6499 20.5043ZM10.9977 7.29995C8.11242 7.29995 5.75072 9.41635 5.51972 12.1235L5.50432 12.3567L5.49992 12.5822V16.65L5.45812 16.8612L4.39882 19.4055L17.5526 19.4076L17.6021 19.4055L16.5417 16.8612L16.4999 16.65V12.5932L16.4955 12.3688C16.38 9.53845 13.9644 7.29995 10.9977 7.29995Z" fill="#8B919E"/>
<path d="M25 7C25 10.866 21.866 14 18 14C14.134 14 11 10.866 11 7C11 3.13401 14.134 0 18 0C21.866 0 25 3.13401 25 7Z" fill="#EE4E39"/>
<path d="M17.835 10.108C17.391 10.108 17.007 10.03 16.683 9.874C16.359 9.712 16.101 9.493 15.909 9.217C15.723 8.935 15.609 8.617 15.567 8.263H16.503C16.563 8.563 16.713 8.812 16.953 9.01C17.193 9.202 17.49 9.298 17.844 9.298C18.108 9.298 18.336 9.235 18.528 9.109C18.72 8.977 18.87 8.803 18.978 8.587C19.086 8.371 19.14 8.128 19.14 7.858C19.14 7.432 19.02 7.093 18.78 6.841C18.54 6.583 18.237 6.454 17.871 6.454C17.559 6.454 17.292 6.529 17.07 6.679C16.848 6.823 16.686 7.006 16.584 7.228H15.675L16.215 3.7H19.617V4.537H16.935L16.611 6.22C16.749 6.064 16.938 5.935 17.178 5.833C17.424 5.725 17.7 5.671 18.006 5.671C18.432 5.671 18.798 5.77 19.104 5.968C19.41 6.16 19.644 6.421 19.806 6.751C19.974 7.081 20.058 7.447 20.058 7.849C20.058 8.269 19.968 8.65 19.788 8.992C19.608 9.334 19.35 9.607 19.014 9.811C18.684 10.009 18.291 10.108 17.835 10.108Z" fill="white"/>
</svg>
